<?xml version="1.0" encoding="UTF-8" standalone="no"?>
<!DOCTYPE svg PUBLIC "-//W3C//DTD SVG 1.1//EN"
 "http://www.w3.org/Graphics/SVG/1.1/DTD/svg11.dtd">
<!-- Generated by graphviz version 2.38.0 (20140413.2041)
 -->
<!-- Title: G Pages: 1 -->
<svg width="1284pt" height="376pt"
 viewBox="0.00 0.00 1284.40 375.97" xmlns="http://www.w3.org/2000/svg" xmlns:xlink="http://www.w3.org/1999/xlink">
<g id="graph0" class="graph" transform="scale(1 1) rotate(0) translate(4 371.966)">
<title>G</title><style>.edge>path:hover{stroke-width:8}</style>
<polygon fill="white" stroke="none" points="-4,4 -4,-371.966 1280.4,-371.966 1280.4,4 -4,4"/>
<!-- flask_wtf -->
<g id="node1" class="node"><title>flask_wtf</title><style>.edge>path:hover{stroke-width:8}</style>
<ellipse fill="#536cb6" stroke="black" cx="1167.97" cy="-349.966" rx="31.577" ry="18"/>
<text text-anchor="middle" x="1167.97" y="-347.466" font-family="Helvetica,sans-Serif" font-size="10.00" fill="#ffffff">flask_wtf</text>
</g>
<!-- app_base_forms -->
<g id="node5" class="node"><title>app_base_forms</title><style>.edge>path:hover{stroke-width:8}</style>
<ellipse fill="#b83d3d" stroke="black" cx="1207.97" cy="-122.974" rx="48.7185" ry="18"/>
<text text-anchor="middle" x="1207.97" y="-120.474" font-family="Helvetica,sans-Serif" font-size="10.00" fill="#ffffff">app.base.forms</text>
</g>
<!-- flask_wtf&#45;&gt;app_base_forms -->
<g id="edge31" class="edge"><title>flask_wtf&#45;&gt;app_base_forms</title><style>.edge>path:hover{stroke-width:8}</style>
<path fill="none" stroke="black" d="M1246.97,-276.966C1258.39,-232.401 1238.07,-180.511 1222.72,-150.056"/>
<polygon fill="#536cb6" stroke="black" points="1225.7,-148.194 1217.96,-140.957 1219.5,-151.44 1225.7,-148.194"/>
<path fill="none" stroke="black" d="M1191.73,-338.008C1212.54,-326.704 1240.45,-306.799 1246.97,-278.966"/>
</g>
<!-- app -->
<g id="node2" class="node"><title>app</title><style>.edge>path:hover{stroke-width:8}</style>
<ellipse fill="#e50505" stroke="black" cx="905.968" cy="-205.966" rx="27" ry="18"/>
<text text-anchor="middle" x="905.968" y="-203.466" font-family="Helvetica,sans-Serif" font-size="10.00" fill="#ffffff">app</text>
</g>
<!-- app_home -->
<g id="node3" class="node"><title>app_home</title><style>.edge>path:hover{stroke-width:8}</style>
<ellipse fill="#c04040" stroke="black" cx="419.968" cy="-205.966" rx="34.9638" ry="18"/>
<text text-anchor="middle" x="419.968" y="-203.466" font-family="Helvetica,sans-Serif" font-size="10.00" fill="#ffffff">app.home</text>
</g>
<!-- wtforms -->
<g id="node4" class="node"><title>wtforms</title><style>.edge>path:hover{stroke-width:8}</style>
<ellipse fill="#c0409f" stroke="black" cx="1246.97" cy="-349.966" rx="29.3664" ry="18"/>
<text text-anchor="middle" x="1246.97" y="-347.466" font-family="Helvetica,sans-Serif" font-size="10.00" fill="#ffffff">wtforms</text>
</g>
<!-- wtforms&#45;&gt;app_base_forms -->
<g id="edge34" class="edge"><title>wtforms&#45;&gt;app_base_forms</title><style>.edge>path:hover{stroke-width:8}</style>
<path fill="none" stroke="black" d="M1244.64,-331.983C1243.22,-317.622 1242.44,-296.624 1246.97,-278.966"/>
</g>
<!-- app_base_routes -->
<g id="node21" class="node"><title>app_base_routes</title><style>.edge>path:hover{stroke-width:8}</style>
<ellipse fill="#883a3a" stroke="black" cx="1068.97" cy="-28.9914" rx="31.2258" ry="28.9828"/>
<text text-anchor="middle" x="1068.97" y="-37.4914" font-family="Helvetica,sans-Serif" font-size="10.00" fill="#ffffff">app.</text>
<text text-anchor="middle" x="1068.97" y="-26.4914" font-family="Helvetica,sans-Serif" font-size="10.00" fill="#ffffff">base.</text>
<text text-anchor="middle" x="1068.97" y="-15.4914" font-family="Helvetica,sans-Serif" font-size="10.00" fill="#ffffff">routes</text>
</g>
<!-- app_base_forms&#45;&gt;app_base_routes -->
<g id="edge1" class="edge"><title>app_base_forms&#45;&gt;app_base_routes</title><style>.edge>path:hover{stroke-width:8}</style>
<path fill="none" stroke="black" d="M1185.33,-106.991C1162.89,-92.1454 1128.27,-69.2319 1102.61,-52.2569"/>
<polygon fill="#b83d3d" stroke="black" points="1104.22,-49.123 1093.95,-46.5232 1100.36,-54.9606 1104.22,-49.123"/>
</g>
<!-- sqlalchemy -->
<g id="node6" class="node"><title>sqlalchemy</title><style>.edge>path:hover{stroke-width:8}</style>
<ellipse fill="#7f33cc" stroke="black" cx="940.968" cy="-349.966" rx="38.7041" ry="18"/>
<text text-anchor="middle" x="940.968" y="-347.466" font-family="Helvetica,sans-Serif" font-size="10.00" fill="#ffffff">sqlalchemy</text>
</g>
<!-- flask_sqlalchemy -->
<g id="node7" class="node"><title>flask_sqlalchemy</title><style>.edge>path:hover{stroke-width:8}</style>
<ellipse fill="#3ab0b0" stroke="black" cx="908.968" cy="-277.966" rx="54.3144" ry="18"/>
<text text-anchor="middle" x="908.968" y="-275.466" font-family="Helvetica,sans-Serif" font-size="10.00" fill="#000000">flask_sqlalchemy</text>
</g>
<!-- sqlalchemy&#45;&gt;flask_sqlalchemy -->
<g id="edge33" class="edge"><title>sqlalchemy&#45;&gt;flask_sqlalchemy</title><style>.edge>path:hover{stroke-width:8}</style>
<path fill="none" stroke="black" d="M933.221,-332.02C929.581,-324.057 925.155,-314.376 921.086,-305.475"/>
<polygon fill="#7f33cc" stroke="black" points="924.206,-303.88 916.865,-296.241 917.839,-306.791 924.206,-303.88"/>
</g>
<!-- app_base_models -->
<g id="node20" class="node"><title>app_base_models</title><style>.edge>path:hover{stroke-width:8}</style>
<ellipse fill="#a83838" stroke="black" cx="1068.97" cy="-122.974" rx="33.8824" ry="28.9828"/>
<text text-anchor="middle" x="1068.97" y="-131.474" font-family="Helvetica,sans-Serif" font-size="10.00" fill="#ffffff">app.</text>
<text text-anchor="middle" x="1068.97" y="-120.474" font-family="Helvetica,sans-Serif" font-size="10.00" fill="#ffffff">base.</text>
<text text-anchor="middle" x="1068.97" y="-109.474" font-family="Helvetica,sans-Serif" font-size="10.00" fill="#ffffff">models</text>
</g>
<!-- sqlalchemy&#45;&gt;app_base_models -->
<g id="edge32" class="edge"><title>sqlalchemy&#45;&gt;app_base_models</title><style>.edge>path:hover{stroke-width:8}</style>
<path fill="none" stroke="black" d="M963.091,-335.065C976.761,-325.507 993.772,-311.725 1004.97,-295.966 1034.31,-254.657 1051.9,-198.29 1061.01,-161.521"/>
<polygon fill="#7f33cc" stroke="black" points="1064.44,-162.238 1063.36,-151.698 1057.63,-160.611 1064.44,-162.238"/>
</g>
<!-- flask_sqlalchemy&#45;&gt;app -->
<g id="edge30" class="edge"><title>flask_sqlalchemy&#45;&gt;app</title><style>.edge>path:hover{stroke-width:8}</style>
<path fill="none" stroke="black" d="M908.226,-259.662C907.895,-251.948 907.498,-242.678 907.129,-234.078"/>
<polygon fill="#3ab0b0" stroke="black" points="910.626,-233.911 906.701,-224.07 903.632,-234.211 910.626,-233.911"/>
</g>
<!-- app_additional -->
<g id="node8" class="node"><title>app_additional</title><style>.edge>path:hover{stroke-width:8}</style>
<ellipse fill="#c04040" stroke="black" cx="555.968" cy="-205.966" rx="45.1548" ry="18"/>
<text text-anchor="middle" x="555.968" y="-203.466" font-family="Helvetica,sans-Serif" font-size="10.00" fill="#ffffff">app.additional</text>
</g>
<!-- app_forms -->
<g id="node9" class="node"><title>app_forms</title><style>.edge>path:hover{stroke-width:8}</style>
<ellipse fill="#c04040" stroke="black" cx="691.968" cy="-205.966" rx="34.9638" ry="18"/>
<text text-anchor="middle" x="691.968" y="-203.466" font-family="Helvetica,sans-Serif" font-size="10.00" fill="#ffffff">app.forms</text>
</g>
<!-- app_base -->
<g id="node10" class="node"><title>app_base</title><style>.edge>path:hover{stroke-width:8}</style>
<ellipse fill="#c04040" stroke="black" cx="51.9675" cy="-205.966" rx="32.9303" ry="18"/>
<text text-anchor="middle" x="51.9675" y="-203.466" font-family="Helvetica,sans-Serif" font-size="10.00" fill="#ffffff">app.base</text>
</g>
<!-- app_tables -->
<g id="node11" class="node"><title>app_tables</title><style>.edge>path:hover{stroke-width:8}</style>
<ellipse fill="#c04040" stroke="black" cx="330.968" cy="-205.966" rx="36.4942" ry="18"/>
<text text-anchor="middle" x="330.968" y="-203.466" font-family="Helvetica,sans-Serif" font-size="10.00" fill="#ffffff">app.tables</text>
</g>
<!-- bcrypt -->
<g id="node12" class="node"><title>bcrypt</title><style>.edge>path:hover{stroke-width:8}</style>
<ellipse fill="#cca633" stroke="black" cx="1090.97" cy="-349.966" rx="27" ry="18"/>
<text text-anchor="middle" x="1090.97" y="-347.466" font-family="Helvetica,sans-Serif" font-size="10.00" fill="#000000">bcrypt</text>
</g>
<!-- bcrypt&#45;&gt;app_base_models -->
<g id="edge3" class="edge"><title>bcrypt&#45;&gt;app_base_models</title><style>.edge>path:hover{stroke-width:8}</style>
<path fill="none" stroke="black" d="M1100.44,-333.016C1114.75,-306.986 1139.39,-253.593 1130.97,-206.966"/>
<path fill="none" stroke="black" d="M1130.97,-204.966C1128.21,-183.884 1114.4,-164.761 1100.51,-150.397"/>
<polygon fill="#cca633" stroke="black" points="1102.89,-147.831 1093.3,-143.334 1097.99,-152.832 1102.89,-147.831"/>
</g>
<!-- bcrypt&#45;&gt;app_base_routes -->
<g id="edge4" class="edge"><title>bcrypt&#45;&gt;app_base_routes</title><style>.edge>path:hover{stroke-width:8}</style>
<path fill="none" stroke="black" d="M1130.97,-204.966C1124.47,-155.346 1130.56,-140.445 1111.97,-93.9828 1107.31,-82.3324 1100.29,-70.6332 1093.27,-60.4832"/>
<polygon fill="#cca633" stroke="black" points="1096.11,-58.4313 1087.43,-52.3567 1090.43,-62.5187 1096.11,-58.4313"/>
</g>
<!-- app_forms_routes -->
<g id="node13" class="node"><title>app_forms_routes</title><style>.edge>path:hover{stroke-width:8}</style>
<ellipse fill="#9d4343" stroke="black" cx="551.968" cy="-122.974" rx="31.2258" ry="28.9828"/>
<text text-anchor="middle" x="551.968" y="-131.474" font-family="Helvetica,sans-Serif" font-size="10.00" fill="#ffffff">app.</text>
<text text-anchor="middle" x="551.968" y="-120.474" font-family="Helvetica,sans-Serif" font-size="10.00" fill="#ffffff">forms.</text>
<text text-anchor="middle" x="551.968" y="-109.474" font-family="Helvetica,sans-Serif" font-size="10.00" fill="#ffffff">routes</text>
</g>
<!-- app_data -->
<g id="node14" class="node"><title>app_data</title><style>.edge>path:hover{stroke-width:8}</style>
<ellipse fill="#c04040" stroke="black" cx="172.968" cy="-205.966" rx="31.577" ry="18"/>
<text text-anchor="middle" x="172.968" y="-203.466" font-family="Helvetica,sans-Serif" font-size="10.00" fill="#ffffff">app.data</text>
</g>
<!-- app_ui_routes -->
<g id="node15" class="node"><title>app_ui_routes</title><style>.edge>path:hover{stroke-width:8}</style>
<ellipse fill="#9d4343" stroke="black" cx="935.968" cy="-122.974" rx="42.9448" ry="18"/>
<text text-anchor="middle" x="935.968" y="-120.474" font-family="Helvetica,sans-Serif" font-size="10.00" fill="#ffffff">app.ui.routes</text>
</g>
<!-- flask -->
<g id="node16" class="node"><title>flask</title><style>.edge>path:hover{stroke-width:8}</style>
<ellipse fill="#80f906" stroke="black" cx="766.968" cy="-349.966" rx="27" ry="18"/>
<text text-anchor="middle" x="766.968" y="-347.466" font-family="Helvetica,sans-Serif" font-size="10.00" fill="#000000">flask</text>
</g>
<!-- flask&#45;&gt;app -->
<g id="edge5" class="edge"><title>flask&#45;&gt;app</title><style>.edge>path:hover{stroke-width:8}</style>
<path fill="none" stroke="black" d="M788.968,-276.966C799.661,-260.827 844.459,-236.732 875.411,-221.438"/>
<polygon fill="#80f906" stroke="black" points="877.068,-224.524 884.519,-216.993 873.997,-218.234 877.068,-224.524"/>
</g>
<!-- flask&#45;&gt;app_home -->
<g id="edge14" class="edge"><title>flask&#45;&gt;app_home</title><style>.edge>path:hover{stroke-width:8}</style>
<path fill="none" stroke="black" d="M330.968,-276.966C321.199,-264.703 358.152,-240.548 387.399,-224.079"/>
<polygon fill="#80f906" stroke="black" points="389.106,-227.135 396.168,-219.237 385.722,-221.007 389.106,-227.135"/>
</g>
<!-- flask&#45;&gt;flask_sqlalchemy -->
<g id="edge20" class="edge"><title>flask&#45;&gt;flask_sqlalchemy</title><style>.edge>path:hover{stroke-width:8}</style>
<path fill="none" stroke="black" d="M788.226,-338.486C810.027,-327.739 844.402,-310.793 870.908,-297.727"/>
<polygon fill="#80f906" stroke="black" points="872.5,-300.845 879.922,-293.284 869.405,-294.566 872.5,-300.845"/>
</g>
<!-- flask&#45;&gt;app_additional -->
<g id="edge6" class="edge"><title>flask&#45;&gt;app_additional</title><style>.edge>path:hover{stroke-width:8}</style>
<path fill="none" stroke="black" d="M330.968,-276.966C329.513,-275.139 444.638,-240.295 510.753,-220.471"/>
<polygon fill="#80f906" stroke="black" points="511.95,-223.766 520.525,-217.543 509.941,-217.06 511.95,-223.766"/>
</g>
<!-- flask&#45;&gt;app_forms -->
<g id="edge12" class="edge"><title>flask&#45;&gt;app_forms</title><style>.edge>path:hover{stroke-width:8}</style>
<path fill="none" stroke="black" d="M330.968,-276.966C287.149,-221.959 574.847,-241.44 642.968,-223.966 646.879,-222.962 650.923,-221.789 654.934,-220.536"/>
<polygon fill="#80f906" stroke="black" points="656.337,-223.759 664.741,-217.308 654.148,-217.11 656.337,-223.759"/>
</g>
<!-- flask&#45;&gt;app_base -->
<g id="edge8" class="edge"><title>flask&#45;&gt;app_base</title><style>.edge>path:hover{stroke-width:8}</style>
<path fill="none" stroke="black" d="M330.968,-276.966C265.066,-194.239 200.444,-253.787 98.9675,-223.966 95.3409,-222.9 91.5876,-221.704 87.8558,-220.455"/>
<polygon fill="#80f906" stroke="black" points="88.7239,-217.051 78.1291,-217.07 86.4233,-223.662 88.7239,-217.051"/>
</g>
<!-- flask&#45;&gt;app_tables -->
<g id="edge16" class="edge"><title>flask&#45;&gt;app_tables</title><style>.edge>path:hover{stroke-width:8}</style>
<path fill="none" stroke="black" d="M330.968,-276.966C321.462,-265.033 321.279,-247.972 323.561,-233.68"/>
<polygon fill="#80f906" stroke="black" points="326.991,-234.374 325.56,-223.876 320.132,-232.975 326.991,-234.374"/>
</g>
<!-- flask&#45;&gt;app_forms_routes -->
<g id="edge13" class="edge"><title>flask&#45;&gt;app_forms_routes</title><style>.edge>path:hover{stroke-width:8}</style>
<path fill="none" stroke="black" d="M330.968,-276.966C291.32,-227.195 411.964,-260.634 463.968,-223.966 478.378,-213.805 506.846,-180.268 527.511,-154.81"/>
<polygon fill="#80f906" stroke="black" points="530.363,-156.849 533.918,-146.868 524.915,-152.453 530.363,-156.849"/>
</g>
<!-- flask&#45;&gt;app_data -->
<g id="edge10" class="edge"><title>flask&#45;&gt;app_data</title><style>.edge>path:hover{stroke-width:8}</style>
<path fill="none" stroke="black" d="M330.968,-276.966C326.82,-271.76 252.485,-240.128 207.273,-221.213"/>
<polygon fill="#80f906" stroke="black" points="208.407,-217.894 197.83,-217.271 205.71,-224.354 208.407,-217.894"/>
</g>
<!-- flask&#45;&gt;app_ui_routes -->
<g id="edge19" class="edge"><title>flask&#45;&gt;app_ui_routes</title><style>.edge>path:hover{stroke-width:8}</style>
<path fill="none" stroke="black" d="M843.968,-204.966C847.029,-188.811 879.917,-162.648 905.507,-144.446"/>
<polygon fill="#80f906" stroke="black" points="907.667,-147.206 913.853,-138.604 903.653,-141.472 907.667,-147.206"/>
</g>
<!-- app_additional_routes -->
<g id="node17" class="node"><title>app_additional_routes</title><style>.edge>path:hover{stroke-width:8}</style>
<ellipse fill="#9d4343" stroke="black" cx="751.968" cy="-122.974" rx="43.2674" ry="28.9828"/>
<text text-anchor="middle" x="751.968" y="-131.474" font-family="Helvetica,sans-Serif" font-size="10.00" fill="#ffffff">app.</text>
<text text-anchor="middle" x="751.968" y="-120.474" font-family="Helvetica,sans-Serif" font-size="10.00" fill="#ffffff">additional.</text>
<text text-anchor="middle" x="751.968" y="-109.474" font-family="Helvetica,sans-Serif" font-size="10.00" fill="#ffffff">routes</text>
</g>
<!-- flask&#45;&gt;app_additional_routes -->
<g id="edge7" class="edge"><title>flask&#45;&gt;app_additional_routes</title><style>.edge>path:hover{stroke-width:8}</style>
<path fill="none" stroke="black" d="M330.968,-276.966C252.324,-178.243 497.611,-281.471 609.968,-223.966 630.677,-213.366 629.518,-202.137 647.968,-187.966 667.504,-172.959 690.733,-158.391 710.277,-146.956"/>
<polygon fill="#80f906" stroke="black" points="712.064,-149.966 718.971,-141.932 708.561,-143.905 712.064,-149.966"/>
</g>
<!-- app_tables_routes -->
<g id="node18" class="node"><title>app_tables_routes</title><style>.edge>path:hover{stroke-width:8}</style>
<ellipse fill="#9d4343" stroke="black" cx="290.968" cy="-122.974" rx="32.5538" ry="28.9828"/>
<text text-anchor="middle" x="290.968" y="-131.474" font-family="Helvetica,sans-Serif" font-size="10.00" fill="#ffffff">app.</text>
<text text-anchor="middle" x="290.968" y="-120.474" font-family="Helvetica,sans-Serif" font-size="10.00" fill="#ffffff">tables.</text>
<text text-anchor="middle" x="290.968" y="-109.474" font-family="Helvetica,sans-Serif" font-size="10.00" fill="#ffffff">routes</text>
</g>
<!-- flask&#45;&gt;app_tables_routes -->
<g id="edge17" class="edge"><title>flask&#45;&gt;app_tables_routes</title><style>.edge>path:hover{stroke-width:8}</style>
<path fill="none" stroke="black" d="M330.968,-276.966C273.894,-205.412 187.741,-296.537 131.968,-223.966 122.218,-211.279 122.832,-201.101 131.968,-187.966 158.224,-150.214 186.431,-169.437 228.968,-151.966 236.898,-148.708 245.316,-145.047 253.308,-141.474"/>
<polygon fill="#80f906" stroke="black" points="254.767,-144.655 262.439,-137.348 251.885,-138.276 254.767,-144.655"/>
</g>
<!-- flask&#45;&gt;app_base_routes -->
<g id="edge9" class="edge"><title>flask&#45;&gt;app_base_routes</title><style>.edge>path:hover{stroke-width:8}</style>
<path fill="none" stroke="black" d="M788.968,-276.966C810.821,-243.983 836.601,-245.839 843.968,-206.966"/>
<path fill="none" stroke="black" d="M769.558,-331.98C772.447,-317.043 778.202,-295.213 788.968,-278.966"/>
<path fill="none" stroke="black" d="M843.968,-204.966C856.664,-137.961 739.001,-207.888 699.968,-151.966 685.218,-130.834 683.375,-113.7 699.968,-93.9828 741.503,-44.6242 940.353,-33.3365 1027.68,-30.7559"/>
<polygon fill="#80f906" stroke="black" points="1027.86,-34.2525 1037.76,-30.4824 1027.67,-27.255 1027.86,-34.2525"/>
</g>
<!-- app_home_routes -->
<g id="node22" class="node"><title>app_home_routes</title><style>.edge>path:hover{stroke-width:8}</style>
<ellipse fill="#9d4343" stroke="black" cx="843.968" cy="-122.974" rx="31.2258" ry="28.9828"/>
<text text-anchor="middle" x="843.968" y="-131.474" font-family="Helvetica,sans-Serif" font-size="10.00" fill="#ffffff">app.</text>
<text text-anchor="middle" x="843.968" y="-120.474" font-family="Helvetica,sans-Serif" font-size="10.00" fill="#ffffff">home.</text>
<text text-anchor="middle" x="843.968" y="-109.474" font-family="Helvetica,sans-Serif" font-size="10.00" fill="#ffffff">routes</text>
</g>
<!-- flask&#45;&gt;app_home_routes -->
<g id="edge15" class="edge"><title>flask&#45;&gt;app_home_routes</title><style>.edge>path:hover{stroke-width:8}</style>
<path fill="none" stroke="black" d="M843.968,-204.966C846.596,-191.094 847.163,-175.645 846.88,-161.989"/>
<polygon fill="#80f906" stroke="black" points="850.377,-161.82 846.519,-151.952 843.381,-162.072 850.377,-161.82"/>
</g>
<!-- app_ui -->
<g id="node23" class="node"><title>app_ui</title><style>.edge>path:hover{stroke-width:8}</style>
<ellipse fill="#c04040" stroke="black" cx="249.968" cy="-205.966" rx="27" ry="18"/>
<text text-anchor="middle" x="249.968" y="-203.466" font-family="Helvetica,sans-Serif" font-size="10.00" fill="#ffffff">app.ui</text>
</g>
<!-- flask&#45;&gt;app_ui -->
<g id="edge18" class="edge"><title>flask&#45;&gt;app_ui</title><style>.edge>path:hover{stroke-width:8}</style>
<path fill="none" stroke="black" d="M330.968,-276.966C315.288,-257.282 293.535,-238.838 276.52,-225.829"/>
<polygon fill="#80f906" stroke="black" points="278.217,-222.728 268.112,-219.544 274.026,-228.334 278.217,-222.728"/>
</g>
<!-- app_data_routes -->
<g id="node24" class="node"><title>app_data_routes</title><style>.edge>path:hover{stroke-width:8}</style>
<ellipse fill="#9d4343" stroke="black" cx="188.968" cy="-122.974" rx="31.2258" ry="28.9828"/>
<text text-anchor="middle" x="188.968" y="-131.474" font-family="Helvetica,sans-Serif" font-size="10.00" fill="#ffffff">app.</text>
<text text-anchor="middle" x="188.968" y="-120.474" font-family="Helvetica,sans-Serif" font-size="10.00" fill="#ffffff">data.</text>
<text text-anchor="middle" x="188.968" y="-109.474" font-family="Helvetica,sans-Serif" font-size="10.00" fill="#ffffff">routes</text>
</g>
<!-- flask&#45;&gt;app_data_routes -->
<g id="edge11" class="edge"><title>flask&#45;&gt;app_data_routes</title><style>.edge>path:hover{stroke-width:8}</style>
<path fill="none" stroke="black" d="M330.968,-276.966C241.941,-163.023 103.516,-334.226 9.96753,-223.966 -33.2054,-173.08 82.8465,-143.099 148.073,-130.695"/>
<polygon fill="#80f906" stroke="black" points="148.871,-134.106 158.072,-128.854 147.604,-127.222 148.871,-134.106"/>
<path fill="none" stroke="black" d="M739.947,-349.189C652.646,-349.257 380.921,-344.153 330.968,-278.966"/>
</g>
<!-- flask_login -->
<g id="node19" class="node"><title>flask_login</title><style>.edge>path:hover{stroke-width:8}</style>
<ellipse fill="#10f94a" stroke="black" cx="847.968" cy="-349.966" rx="36.4942" ry="18"/>
<text text-anchor="middle" x="847.968" y="-347.466" font-family="Helvetica,sans-Serif" font-size="10.00" fill="#000000">flask_login</text>
</g>
<!-- flask_login&#45;&gt;app -->
<g id="edge21" class="edge"><title>flask_login&#45;&gt;app</title><style>.edge>path:hover{stroke-width:8}</style>
<path fill="none" stroke="black" d="M990.968,-276.966C999.217,-248.867 967.158,-229.331 940.077,-218.172"/>
<polygon fill="#10f94a" stroke="black" points="940.998,-214.776 930.408,-214.439 938.477,-221.306 940.998,-214.776"/>
<path fill="none" stroke="black" d="M875.97,-338.227C907.16,-326.051 955.378,-306.527 971.968,-295.966 981.526,-289.88 987.776,-289.838 990.968,-278.966"/>
</g>
<!-- flask_login&#45;&gt;app_forms_routes -->
<g id="edge26" class="edge"><title>flask_login&#45;&gt;app_forms_routes</title><style>.edge>path:hover{stroke-width:8}</style>
<path fill="none" stroke="black" d="M990.968,-204.966C971.92,-170.35 1057.46,-212.338 699.968,-151.966 663.409,-145.792 621.948,-137.87 592.229,-132.031"/>
<polygon fill="#10f94a" stroke="black" points="592.723,-128.561 582.234,-130.059 591.367,-135.429 592.723,-128.561"/>
<path fill="none" stroke="black" d="M990.968,-276.966C999.731,-247.114 1005.97,-234.223 990.968,-206.966"/>
</g>
<!-- flask_login&#45;&gt;app_ui_routes -->
<g id="edge29" class="edge"><title>flask_login&#45;&gt;app_ui_routes</title><style>.edge>path:hover{stroke-width:8}</style>
<path fill="none" stroke="black" d="M990.968,-204.966C980.113,-185.239 965.765,-164.242 954.446,-148.57"/>
<polygon fill="#10f94a" stroke="black" points="957.238,-146.46 948.51,-140.454 951.588,-150.592 957.238,-146.46"/>
</g>
<!-- flask_login&#45;&gt;app_additional_routes -->
<g id="edge22" class="edge"><title>flask_login&#45;&gt;app_additional_routes</title><style>.edge>path:hover{stroke-width:8}</style>
<path fill="none" stroke="black" d="M990.968,-204.966C979.855,-184.77 964.026,-194.658 941.968,-187.966 881.312,-169.563 862.96,-175.152 803.968,-151.966 800.315,-150.53 796.592,-148.898 792.901,-147.16"/>
<polygon fill="#10f94a" stroke="black" points="794.366,-143.979 783.852,-142.674 791.257,-150.251 794.366,-143.979"/>
</g>
<!-- flask_login&#45;&gt;app_tables_routes -->
<g id="edge28" class="edge"><title>flask_login&#45;&gt;app_tables_routes</title><style>.edge>path:hover{stroke-width:8}</style>
<path fill="none" stroke="black" d="M845.042,-331.939C838.288,-298.282 818.244,-223.432 768.968,-187.966 764.53,-184.772 448.911,-144.163 333.031,-129.342"/>
<polygon fill="#10f94a" stroke="black" points="333.462,-125.869 323.099,-128.072 332.575,-132.812 333.462,-125.869"/>
</g>
<!-- flask_login&#45;&gt;app_base_models -->
<g id="edge23" class="edge"><title>flask_login&#45;&gt;app_base_models</title><style>.edge>path:hover{stroke-width:8}</style>
<path fill="none" stroke="black" d="M990.968,-204.966C984.034,-192.365 1010.92,-167.439 1034.99,-148.55"/>
<polygon fill="#10f94a" stroke="black" points="1037.2,-151.27 1043,-142.402 1032.93,-145.719 1037.2,-151.27"/>
</g>
<!-- flask_login&#45;&gt;app_base_routes -->
<g id="edge24" class="edge"><title>flask_login&#45;&gt;app_base_routes</title><style>.edge>path:hover{stroke-width:8}</style>
<path fill="none" stroke="black" d="M990.968,-204.966C966.033,-159.652 1003.54,-140.586 1025.97,-93.9828 1031.31,-82.8823 1038.37,-71.4921 1045.22,-61.4554"/>
<polygon fill="#10f94a" stroke="black" points="1048.26,-63.2206 1051.14,-53.025 1042.53,-59.1985 1048.26,-63.2206"/>
</g>
<!-- flask_login&#45;&gt;app_home_routes -->
<g id="edge27" class="edge"><title>flask_login&#45;&gt;app_home_routes</title><style>.edge>path:hover{stroke-width:8}</style>
<path fill="none" stroke="black" d="M990.968,-204.966C965.383,-158.47 929.615,-179.034 883.968,-151.966 881.507,-150.506 879,-148.946 876.502,-147.335"/>
<polygon fill="#10f94a" stroke="black" points="878.381,-144.382 868.12,-141.744 874.497,-150.205 878.381,-144.382"/>
</g>
<!-- flask_login&#45;&gt;app_data_routes -->
<g id="edge25" class="edge"><title>flask_login&#45;&gt;app_data_routes</title><style>.edge>path:hover{stroke-width:8}</style>
<path fill="none" stroke="black" d="M823.669,-336.373C807.862,-327.088 787.862,-313.115 774.968,-295.966 744.299,-255.175 776.625,-218.811 735.968,-187.966 649.514,-122.377 353.972,-179.354 248.968,-151.966 240.823,-149.841 232.429,-146.642 224.594,-143.156"/>
<polygon fill="#10f94a" stroke="black" points="225.907,-139.906 215.369,-138.816 222.927,-146.24 225.907,-139.906"/>
</g>
<!-- app_base_models&#45;&gt;app_base_routes -->
<g id="edge2" class="edge"><title>app_base_models&#45;&gt;app_base_routes</title><style>.edge>path:hover{stroke-width:8}</style>
<path fill="none" stroke="black" d="M1068.97,-93.8765C1068.97,-85.8384 1068.97,-76.9365 1068.97,-68.3938"/>
<polygon fill="#a83838" stroke="black" points="1072.47,-68.2339 1068.97,-58.2339 1065.47,-68.234 1072.47,-68.2339"/>
</g>
</g>
</svg>
